_________________________  Visit us at _________________________
  
http://p2pdl.com  ____________________________  http://p2pdl.com


The Holiday 2006 BRRip 720p x264 AAC - PRiSTiNE [P2PDL]

Genre: Comedy | Romance
Plot: Two women troubled with guy-problems swap homes 
in each other's countries, where they each meet 
a local guy and fall in love.
Director: Nancy Meyers
Stars:  Cameron Diaz, Kate Winslet, Jude Law
Rated: Rated PG-13 for sexual content and some strong language

Info: 
http://www.imdb.com/title/tt1462900/

General
Complete name                  : The Holiday 2006 BRRip 720p x264 AAC - PRiSTiNE.mp4
Format                         : MPEG-4
File size                      : 852 MiB
Duration                       : 2h 15mn
Overall bit rate mode          : Variable
Overall bit rate               : 878 Kbps

Video
Format                         : AVC
Format/Info                    : Advanced Video Codec
Format profile                 : High 10@L4.1
Bit rate                       : 795 Kbps
Width                          : 1 280 pixels
Height                         : 694 pixels
Display aspect ratio           : 1.85:1
Frame rate mode                : Constant
Frame rate                     : 23.976 fps
Bit depth                      : 10 bits
Stream size                    : 771 MiB (91%)
Writing library                : x264 core 130 r2273 b3065e6

Audio
Format                         : AAC
Format/Info                    : Advanced Audio Codec
Bit rate                       : 79.9 Kbps
Channel(s)                     : 2 channels
Channel positions              : Front: L R
Sampling rate                  : 48.0 KHz / 24.0 KHz
Stream size                    : 77.6 MiB (9%)
Language                       : English

Subtitle                       : Yes (English)
Source                         : 720p.BluRay.x264-EbP (Thanks)

Screenshots:
 
http://www.ultraimg.com/images/qDEFi.jpg 
http://www.ultraimg.com/images/2j34.jpg 
http://www.ultraimg.com/images/r4lSP.jpg 
http://www.ultraimg.com/images/WBxCO.jpg 
http://www.ultraimg.com/images/G80iL.jpg 
http://www.ultraimg.com/images/1zUWC.jpg 
http://www.ultraimg.com/images/zrPEp.jpg 
http://www.ultraimg.com/images/zA6j0.jpg 
http://www.ultraimg.com/images/osCKz.jpg

----------------------------------------------------------------------------------------------------


Encoded using revolutionary 10bit encoding, which enables us to provide you more crispier 
and sharper images at small sizes, just make sure you follow our instructions without a fault.
Recommend to you to use latest version of VLC player. Install K-Lite Codec Pack or shark007 codecs
in case of any kind of problem in playback (For non-VLC Media Player users). Alternatively, install
Core AVC codecs, the fastest decoder that there is coupled with Community Center Codec Pack and play
on Windows Media Player Classic. Check sample to be sure.
Enjoy!

Encoder Notes:Looking For Early Access To Anything You Can Provide DVDScr, R5, DVDR, BluRay, Direct
Audio, Music Releases and Seedboxes. We require dedicated servers, so as to do more 
and fast releases of movies.
If You Got anything to offer please contact us at "prg@hush.com".

Face book Fan Page:   
http://www.fb.me/p2pdl